<?xml version="1.0" encoding="UTF-8" standalone="no"?>
<!-- Created with Inkscape (http://www.inkscape.org/) -->

<svg xmlns="http://www.w3.org/2000/svg" width="24" height="24" viewBox="0 0 24 24" fill="none">
  <path d="M15.1823 8.33154H8.82782C8.55792 8.33154 8.33789 8.55157 8.33789 8.82148V15.1759C8.33789 15.4458 8.55792 15.6659 8.82782 15.6659H15.1823C15.4522 15.6659 15.6722 15.4458 15.6722 15.1759V8.82148C15.6693 8.55157 15.4522 8.33154 15.1823 8.33154Z" fill="white"/>
  <path d="M7.84438 1H1.48993C1.22003 1 1 1.22003 1 1.48993V7.84439C1 8.11429 1.22003 8.33432 1.48993 8.33432H7.84438C8.11428 8.33432 8.33431 8.11429 8.33431 7.84439V1.487C8.33431 1.2171 8.11428 1 7.84438 1Z" fill="white"/>
  <path d="M22.5104 1H16.1559C15.886 1 15.666 1.22003 15.666 1.48993V7.84439C15.666 8.11429 15.886 8.33432 16.1559 8.33432H22.5104C22.7803 8.33432 23.0003 8.11429 23.0003 7.84439V1.487C23.0003 1.2171 22.7803 1 22.5104 1Z" fill="white"/>
  <path d="M7.84438 15.666H1.48993C1.22003 15.666 1 15.886 1 16.1559V22.5104C1 22.7803 1.22003 23.0003 1.48993 23.0003H7.84438C8.11428 23.0003 8.33431 22.7803 8.33431 22.5104V16.1559C8.33431 15.8831 8.11428 15.666 7.84438 15.666Z" fill="white"/>
  <path d="M22.5104 15.666H16.1559C15.886 15.666 15.666 15.886 15.666 16.1559V22.5104C15.666 22.7803 15.886 23.0003 16.1559 23.0003H22.5104C22.7803 23.0003 23.0003 22.7803 23.0003 22.5104V16.1559C23.0003 15.8831 22.7803 15.666 22.5104 15.666Z" fill="white"/>
</svg>