<svg width="24" height="24" viewBox="0 0 24 24" fill="none" xmlns="http://www.w3.org/2000/svg">
<g id="safepal-logo 1">
<g id="Layer_x0020_1">
<g id="_1577769208608">
<path id="Vector" d="M10.6448 1.00049C9.976 1.00049 9.3336 1.26449 8.8584 1.73969L1.4224 9.17569C1.1408 9.45729 1 9.82689 1 10.1965C1 10.5661 1.1408 10.9357 1.4224 11.2173L6.2976 16.0925V7.46849C6.2976 6.82609 6.8168 6.30689 7.4592 6.30689C10.1784 6.30689 16.8048 6.30689 17.7024 6.30689L23 1.00929H10.6448V1.00049Z" fill="#4A21EF"/>
<path id="Vector_2" d="M6.2976 17.7026H16.5408C17.1832 17.7026 17.7024 17.1834 17.7024 16.541V7.91699L22.5776 12.7922C22.8592 13.0738 23 13.4434 23 13.813C23 14.1826 22.8592 14.5522 22.5776 14.8338L15.1416 22.2698C14.6664 22.745 14.024 23.009 13.3552 23.009H1L6.2976 17.7114V17.7026Z" fill="#4A21EF"/>
</g>
</g>
</g>
</svg>
