<svg width="24" height="24" viewBox="0 0 24 24" fill="none" xmlns="http://www.w3.org/2000/svg">
<g id="tronlink-logo" clip-path="url(#clip0_4420_7763)">
<path id="Vector" d="M18.839 0H5.16098C2.31065 0 0 2.31065 0 5.16098V18.839C0 21.6893 2.31065 24 5.16098 24H18.839C21.6893 24 24 21.6893 24 18.839V5.16098C24 2.31065 21.6893 0 18.839 0Z" fill="#135DCD"/>
<path id="Vector_2" d="M12.6298 24H11.1872L5.19764 7.2674L4.67383 5.80386L4.68168 5.77051L6.21911 6.10075L6.6141 7.20528L6.75601 7.60288L7.35764 9.28288L12.6298 24Z" fill="white"/>
<path id="Vector_3" d="M19.3058 18.5756L19.2104 19.9921L18.939 24.0001H17.582L17.9306 18.8365L17.9535 18.4854L19.3058 18.5756Z" fill="white"/>
<path id="Vector_4" d="M23.9987 12.4697V14.3845L20.3059 18.0774L19.6839 18.6993L18.7266 17.7419L23.9987 12.4697Z" fill="white"/>
<path id="Vector_5" d="M24.0003 17.4429V18.8181L18.447 19.7703L18.2168 18.4362L24.0003 17.4429Z" fill="white"/>
<path id="Vector_6" d="M4.67383 5.80386L4.68168 5.77051L6.21911 6.10075L24 9.9146V11.2984L6.75601 7.60288L5.19764 7.2674L4.67383 5.80386Z" fill="white"/>
<path id="Vector_7" d="M6.82248 6.97315L5.91406 7.97852L18.7815 19.6051L19.6899 18.5998L6.82248 6.97315Z" fill="white"/>
</g>
<defs>
<clipPath id="clip0_4420_7763">
<rect width="24" height="24" fill="white"/>
</clipPath>
</defs>
</svg>
